<svg width="20" height="17" viewBox="0 0 20 17" fill="none" xmlns="http://www.w3.org/2000/svg">
<path d="M9.98996 16.5207V14.6146L15.6718 8.81561L17.5394 10.7218L11.8576 16.5207H9.98996ZM0.520264 10.8828V9.27201H8.41168V10.8828H0.520264ZM18.6705 9.56733L16.8029 7.66119L17.5657 6.88262C17.706 6.73944 17.8901 6.66785 18.1181 6.66785C18.3461 6.66785 18.5302 6.73944 18.6705 6.88262L19.4334 7.66119C19.5736 7.80437 19.6438 7.9923 19.6438 8.22498C19.6438 8.45765 19.5736 8.64558 19.4334 8.78876L18.6705 9.56733ZM0.520264 6.45307V4.84224H12.8835V6.45307H0.520264ZM0.520264 2.0233V0.412476H12.8835V2.0233H0.520264Z" fill="#171717"/>
</svg>