<svg width="49" height="48" viewBox="0 0 49 48" fill="none" xmlns="http://www.w3.org/2000/svg">
<path d="M18.13 41.675C20.2379 41.3428 22.2996 40.7648 24.273 39.953M21.873 27.402C19.384 26.083 17.07 24.355 14.932 22.217C14.7922 22.0771 14.6539 21.9357 14.517 21.793M12.619 22.082C10.3571 25.3892 8.85139 29.1541 8.20899 33.109M9.01599 13.746C9.95522 15.9035 11.1915 17.919 12.689 19.734M14.308 19.846C14.8918 19.1516 15.5092 18.4862 16.158 17.852C18.497 15.534 21.032 13.694 23.768 12.334M25.976 13.194C27.0998 15.2763 27.9386 17.5002 28.47 19.806M41.096 20.354C41.422 18.97 41.643 17.544 41.76 16.074M20.232 5.763L20.878 6.409C22.2198 7.74341 23.4322 9.20192 24.499 10.765M26.281 11.245C29.381 10.09 32.721 9.515 36.298 9.515H36.621M43.46 21.028C43.2132 19.2682 42.7092 17.5542 41.964 15.941C41.024 14.018 39.748 12.229 38.131 10.569C37.671 10.132 37.214 9.705 36.756 9.292C33.326 6.43 29.296 5 24.666 5C23.093 5 21.586 5.162 20.146 5.49C16.804 6.299 13.835 7.992 11.236 10.569C10.3131 11.4836 9.48957 12.4932 8.77899 13.581C6.70499 16.641 5.66699 20.111 5.66699 24C5.66699 27.386 6.43199 30.453 7.95999 33.205C8.81199 34.711 9.90399 36.131 11.235 37.465C13.267 39.473 15.528 40.946 18.017 41.885C19.917 42.563 21.97 42.935 24.174 43H24.667C25.607 43 26.524 42.941 27.416 42.823M24.177 12.963C24.0456 12.8369 23.9415 12.6853 23.871 12.5174C23.8004 12.3496 23.7651 12.1691 23.767 11.987C23.767 11.61 23.903 11.276 24.177 10.987C24.4505 10.736 24.8088 10.5977 25.18 10.6C25.556 10.6 25.873 10.729 26.13 10.986C26.422 11.276 26.567 11.61 26.567 11.987C26.567 12.365 26.422 12.69 26.129 12.964C26.0131 13.1028 25.8677 13.214 25.7033 13.2895C25.539 13.3649 25.3598 13.4027 25.179 13.4C24.803 13.4 24.469 13.254 24.177 12.963ZM12.044 20.928C12.044 20.552 12.182 20.218 12.456 19.926C12.718 19.6742 13.0687 19.5358 13.432 19.541C13.808 19.541 14.133 19.67 14.408 19.926C14.699 20.217 14.844 20.552 14.844 20.928C14.844 21.305 14.699 21.63 14.408 21.905C14.133 22.196 13.808 22.341 13.432 22.341C13.055 22.341 12.73 22.196 12.456 21.905C12.3244 21.7788 12.22 21.627 12.1492 21.459C12.0783 21.291 12.0425 21.1103 12.044 20.928ZM26.96 24.268L33.841 22.23C34.341 22.077 34.699 22 34.917 22C35.091 22 35.438 22.077 35.961 22.23L42.809 24.268C43.221 24.378 43.493 24.486 43.624 24.596C43.819 24.772 43.917 25.046 43.917 25.418V31.728C43.895 32.013 43.874 32.286 43.851 32.549C43.569 34.762 42.591 36.789 40.917 38.629C40.482 39.089 40.101 39.462 39.775 39.746C38.8932 40.5045 37.9563 41.1964 36.972 41.816C36.7809 41.9445 36.5848 42.0653 36.384 42.178C35.994 42.42 35.58 42.66 35.146 42.901L34.852 43L34.623 42.901C34.3657 42.7719 34.1154 42.6293 33.873 42.474C32.373 41.598 31.091 40.688 30.025 39.747C29.8188 39.5607 29.6231 39.3631 29.439 39.155C29.3888 39.1061 29.3342 39.0619 29.276 39.023L29.015 38.761C28.9453 38.6681 28.8691 38.5802 28.787 38.498C27.743 37.336 26.982 36.11 26.504 34.817C26.2702 34.2247 26.1061 33.6072 26.015 32.977C25.9488 32.5751 25.916 32.1683 25.917 31.761V25.418C25.917 25.046 25.993 24.772 26.145 24.596C26.297 24.486 26.569 24.377 26.96 24.268Z" stroke="#FF7800" stroke-width="1.5" stroke-linecap="round" stroke-linejoin="round"/>
</svg>