<svg width="25" height="20" viewBox="0 0 25 20" fill="none" xmlns="http://www.w3.org/2000/svg">
<path d="M12.5 1.875C15.1936 1.875 17.7769 2.73102 19.6816 4.25476C21.5862 5.77849 22.6562 7.84512 22.6562 10C22.6562 12.1549 21.5862 14.2215 19.6816 15.7452C17.7769 17.269 15.1936 18.125 12.5 18.125C9.80639 18.125 7.22311 17.269 5.31845 15.7452C3.41378 14.2215 2.34375 12.1549 2.34375 10C2.34375 7.84512 3.41378 5.77849 5.31845 4.25476C7.22311 2.73102 9.80639 1.875 12.5 1.875ZM12.5 20C15.8152 20 18.9946 18.9464 21.3388 17.0711C23.683 15.1957 25 12.6522 25 10C25 7.34784 23.683 4.8043 21.3388 2.92893C18.9946 1.05357 15.8152 0 12.5 0C9.18479 0 6.00537 1.05357 3.66117 2.92893C1.31696 4.8043 0 7.34784 0 10C0 12.6522 1.31696 15.1957 3.66117 17.0711C6.00537 18.9464 9.18479 20 12.5 20ZM9.73633 12.2109C8.21289 10.9922 8.21289 9.01172 9.73633 7.79297C11.2598 6.57422 13.7354 6.57422 15.2588 7.79297C15.7178 8.16016 16.46 8.16016 16.9141 7.79297C17.3682 7.42578 17.373 6.83203 16.9141 6.46875C14.4727 4.51562 10.5176 4.51562 8.07617 6.46875C5.63477 8.42188 5.63477 11.5859 8.07617 13.5391C10.5176 15.4922 14.4727 15.4922 16.9141 13.5391C17.373 13.1719 17.373 12.5781 16.9141 12.2148C16.4551 11.8516 15.7129 11.8477 15.2588 12.2148C13.7354 13.4336 11.2598 13.4336 9.73633 12.2148V12.2109Z" fill="#171717"/>
</svg>