<svg width="60" height="60" viewBox="0 0 60 60" fill="none" xmlns="http://www.w3.org/2000/svg">
<g clip-path="url(#clip0_42_90)">
<path d="M54.5 45H32C27.8633 45 24.5 41.6367 24.5 37.5V7.5C24.5 3.36328 27.8633 0 32 0H48.418C49.9063 0 51.3359 0.597656 52.3906 1.65234L60.3477 9.60938C61.4023 10.6641 62 12.0938 62 13.582V37.5C62 41.6367 58.6367 45 54.5 45ZM9.5 15H20.75V20.625H9.5C8.46875 20.625 7.625 21.4687 7.625 22.5V52.5C7.625 53.5313 8.46875 54.375 9.5 54.375H32C33.0313 54.375 33.875 53.5313 33.875 52.5V48.75H39.5V52.5C39.5 56.6367 36.1367 60 32 60H9.5C5.36328 60 2 56.6367 2 52.5V22.5C2 18.3633 5.36328 15 9.5 15Z" fill="#0A6AF9"/>
</g>
<defs>
<clipPath id="clip0_42_90">
<rect width="60" height="60" fill="white"/>
</clipPath>
</defs>
</svg>