<svg width="28" height="27" viewBox="0 0 28 27" fill="none" xmlns="http://www.w3.org/2000/svg">
<g clip-path="url(#clip0_148_54)">
<path d="M1.43896 13.5C1.43896 12.7168 1.79049 11.9656 2.4162 11.4118C3.04191 10.858 3.89055 10.5469 4.77544 10.5469C5.66033 10.5469 6.50897 10.858 7.13468 11.4118C7.76039 11.9656 8.11192 12.7168 8.11192 13.5C8.11192 14.2832 7.76039 15.0344 7.13468 15.5882C6.50897 16.142 5.66033 16.4531 4.77544 16.4531C3.89055 16.4531 3.04191 16.142 2.4162 15.5882C1.79049 15.0344 1.43896 14.2832 1.43896 13.5ZM10.9718 13.5C10.9718 12.7168 11.3233 11.9656 11.949 11.4118C12.5747 10.858 13.4233 10.5469 14.3082 10.5469C15.1931 10.5469 16.0418 10.858 16.6675 11.4118C17.2932 11.9656 17.6447 12.7168 17.6447 13.5C17.6447 14.2832 17.2932 15.0344 16.6675 15.5882C16.0418 16.142 15.1931 16.4531 14.3082 16.4531C13.4233 16.4531 12.5747 16.142 11.949 15.5882C11.3233 15.0344 10.9718 14.2832 10.9718 13.5ZM23.841 10.5469C24.7259 10.5469 25.5745 10.858 26.2003 11.4118C26.826 11.9656 27.1775 12.7168 27.1775 13.5C27.1775 14.2832 26.826 15.0344 26.2003 15.5882C25.5745 16.142 24.7259 16.4531 23.841 16.4531C22.9561 16.4531 22.1075 16.142 21.4818 15.5882C20.8561 15.0344 20.5045 14.2832 20.5045 13.5C20.5045 12.7168 20.8561 11.9656 21.4818 11.4118C22.1075 10.858 22.9561 10.5469 23.841 10.5469Z" fill="black"/>
</g>
<defs>
<clipPath id="clip0_148_54">
<rect width="26.6918" height="27" fill="white" transform="translate(0.96228)"/>
</clipPath>
</defs>
</svg>
