<svg width="150" height="150" viewBox="0 0 150 150" fill="none" xmlns="http://www.w3.org/2000/svg">
<path d="M52.3951 38.9608C52.3951 26.3549 62.6511 16.0993 75.2569 16.0993C87.8628 16.0993 98.1187 26.3549 98.1187 38.9608V59.2914C102.767 60.0083 107.343 60.7758 111.23 61.4517V38.9608C111.229 19.1253 95.0921 2.98804 75.2566 2.98804C55.4212 2.98804 39.2839 19.1253 39.2839 38.9608V61.3615C43.2032 60.6821 47.7747 59.9186 52.3951 59.2102V38.9608Z" fill="#CCCCCC"/>
<path d="M111.229 61.4519C107.343 60.7761 102.766 60.0085 98.1182 59.2916C89.2175 57.9187 80.0555 56.7322 74.9774 56.7328C70.0064 56.7331 61.1171 57.8727 52.3945 59.2101C47.7741 59.9185 43.2029 60.682 39.2833 61.3614C32.6883 62.5049 27.9425 63.4101 27.9425 63.4101C27.9425 63.4101 27.9425 95.9962 27.9425 97.0646C27.9425 120.077 74.9774 147.012 74.9774 147.012C74.9774 147.012 122.057 120.077 122.057 97.0646C122.057 96.4415 122.057 63.4101 122.057 63.4101C122.057 63.4101 117.557 62.5523 111.229 61.4519Z" fill="#FF931E"/>
<path d="M122.616 60.4752C122.191 60.3943 118.923 59.7735 114.217 58.9397V38.961C114.218 17.4776 96.7398 0 75.2566 0C53.7735 0 36.2959 17.4776 36.2959 38.9607V58.8475C31.3163 59.7272 27.8241 60.3908 27.3832 60.4752C25.9743 60.7438 24.9551 61.9758 24.9551 63.4104V97.0649C24.9551 107.549 33.2364 119.633 49.5694 132.982C61.384 142.638 73.004 149.325 73.493 149.605C73.9529 149.869 74.4653 150 74.9777 150C75.4898 150 76.002 149.868 76.4616 149.606C76.9512 149.326 88.582 142.638 100.407 132.983C116.756 119.634 125.045 107.549 125.045 97.0646V63.4102C125.045 61.9758 124.025 60.7438 122.616 60.4752ZM95.1305 55.8167C87.2564 54.6604 79.5715 53.7448 74.9804 53.7448C74.9798 53.7448 74.9783 53.7448 74.9775 53.7448C70.4956 53.7451 63.0612 54.6199 55.3831 55.7388V38.9607C55.3831 28.0022 64.2982 19.0869 75.2569 19.0869C86.2157 19.0869 95.1308 28.002 95.1308 38.9607V55.8167H95.1305ZM42.2719 38.9607C42.2719 20.7729 57.0689 5.97598 75.2566 5.97598C93.4444 5.97598 108.241 20.7729 108.241 38.9607V57.9032C105.979 57.5197 103.571 57.1222 101.106 56.7311V38.9607C101.106 24.7072 89.5102 13.1109 75.2566 13.1109C61.0031 13.1109 49.4068 24.7072 49.4068 38.9607V56.6473C46.9503 57.0352 44.5424 57.431 42.2719 57.8145V38.9607ZM119.069 97.0646C119.069 105.534 111.329 116.337 96.6864 128.305C87.641 135.699 78.4802 141.428 74.9783 143.539C71.4888 141.435 62.3807 135.734 53.3517 128.354C38.6842 116.367 30.9313 105.547 30.9313 97.0646V65.8922C39.0343 64.3975 65.1671 59.722 74.9783 59.7211C74.9795 59.7211 74.9795 59.7211 74.981 59.7211C84.803 59.7211 110.961 64.398 119.069 65.8925V97.0646Z" fill="black"/>
<path d="M83.107 89.9459C83.107 85.6102 79.5923 82.0955 75.2566 82.0955C70.921 82.0955 67.4062 85.6102 67.4062 89.9459C67.4062 92.6661 68.7902 95.0628 70.8923 96.4714L68.6139 109.572H81.8991L79.7918 96.3516C81.7972 94.9298 83.107 92.5917 83.107 89.9459Z" fill="#BDCCD4"/>
<path d="M81.8994 112.56H68.6142C67.732 112.56 66.895 112.17 66.3275 111.495C65.7598 110.82 65.5192 109.929 65.6704 109.06L67.6515 97.6685C65.5998 95.6499 64.4183 92.8813 64.4183 89.9461C64.4183 83.9698 69.2804 79.1074 75.2566 79.1074C81.2329 79.1074 86.095 83.9695 86.095 89.9461C86.095 92.7952 84.965 95.5128 83.0039 97.5214L84.8502 109.102C84.9876 109.966 84.7403 110.846 84.1726 111.512C83.6048 112.176 82.7739 112.56 81.8994 112.56ZM72.1667 106.584H78.3973L76.841 96.8224C76.662 95.6997 77.1357 94.5727 78.063 93.9149C79.3506 93.0018 80.119 91.5182 80.119 89.9461C80.119 87.2648 77.9379 85.0837 75.2569 85.0837C72.576 85.0837 70.3948 87.2648 70.3948 89.9461C70.3948 91.5709 71.2028 93.0823 72.5561 93.9896C73.5369 94.6471 74.0388 95.8204 73.8363 96.9841L72.1667 106.584Z" fill="black"/>
<path d="M38.2471 78.5857C36.5968 78.5857 35.2591 77.248 35.2591 75.5977V71.7132C35.2591 70.0629 36.5968 68.7252 38.2471 68.7252C39.8974 68.7252 41.2351 70.0629 41.2351 71.7132V75.5977C41.2351 77.248 39.8974 78.5857 38.2471 78.5857Z" fill="black"/>
<path d="M38.2471 99.8382C36.5968 99.8382 35.2591 98.5005 35.2591 96.8502V86.6534C35.2591 85.0031 36.5968 83.6654 38.2471 83.6654C39.8974 83.6654 41.2351 85.0031 41.2351 86.6534V96.8502C41.2351 98.5005 39.8974 99.8382 38.2471 99.8382Z" fill="black"/>
</svg>