<svg width="306" height="150" viewBox="0 0 306 150" fill="none" xmlns="http://www.w3.org/2000/svg">
<path d="M52.3951 38.9608C52.3951 26.3549 62.6511 16.0993 75.2569 16.0993C87.8628 16.0993 98.1187 26.3549 98.1187 38.9608V59.2914C102.767 60.0083 107.343 60.7758 111.23 61.4517V38.9608C111.229 19.1253 95.0921 2.98804 75.2566 2.98804C55.4212 2.98804 39.2839 19.1253 39.2839 38.9608V61.3615C43.2032 60.6821 47.7747 59.9186 52.3951 59.2102V38.9608Z" fill="#CCCCCC"/>
<path d="M111.229 61.4519C107.343 60.7761 102.766 60.0085 98.1182 59.2916C89.2175 57.9187 80.0555 56.7322 74.9774 56.7328C70.0064 56.7331 61.1171 57.8727 52.3945 59.2101C47.7741 59.9185 43.2029 60.682 39.2833 61.3614C32.6883 62.5049 27.9425 63.4101 27.9425 63.4101C27.9425 63.4101 27.9425 95.9962 27.9425 97.0646C27.9425 120.077 74.9774 147.012 74.9774 147.012C74.9774 147.012 122.057 120.077 122.057 97.0646C122.057 96.4415 122.057 63.4101 122.057 63.4101C122.057 63.4101 117.557 62.5523 111.229 61.4519Z" fill="#FF931E"/>
<path d="M122.616 60.4752C122.191 60.3943 118.923 59.7735 114.217 58.9397V38.961C114.218 17.4776 96.7398 0 75.2566 0C53.7735 0 36.2959 17.4776 36.2959 38.9607V58.8475C31.3163 59.7272 27.8241 60.3908 27.3832 60.4752C25.9743 60.7438 24.9551 61.9758 24.9551 63.4104V97.0649C24.9551 107.549 33.2364 119.633 49.5694 132.982C61.384 142.638 73.004 149.325 73.493 149.605C73.9529 149.869 74.4653 150 74.9777 150C75.4898 150 76.002 149.868 76.4616 149.606C76.9512 149.326 88.582 142.638 100.407 132.983C116.756 119.634 125.045 107.549 125.045 97.0646V63.4102C125.045 61.9758 124.025 60.7438 122.616 60.4752ZM95.1305 55.8167C87.2564 54.6604 79.5715 53.7448 74.9804 53.7448C74.9798 53.7448 74.9783 53.7448 74.9775 53.7448C70.4956 53.7451 63.0612 54.6199 55.3831 55.7388V38.9607C55.3831 28.0022 64.2982 19.0869 75.2569 19.0869C86.2157 19.0869 95.1308 28.002 95.1308 38.9607V55.8167H95.1305ZM42.2719 38.9607C42.2719 20.7729 57.0689 5.97598 75.2566 5.97598C93.4444 5.97598 108.241 20.7729 108.241 38.9607V57.9032C105.979 57.5197 103.571 57.1222 101.106 56.7311V38.9607C101.106 24.7072 89.5102 13.1109 75.2566 13.1109C61.0031 13.1109 49.4068 24.7072 49.4068 38.9607V56.6473C46.9503 57.0352 44.5424 57.431 42.2719 57.8145V38.9607ZM119.069 97.0646C119.069 105.534 111.329 116.337 96.6864 128.305C87.641 135.699 78.4802 141.428 74.9783 143.539C71.4888 141.435 62.3807 135.734 53.3517 128.354C38.6842 116.367 30.9313 105.547 30.9313 97.0646V65.8922C39.0343 64.3975 65.1671 59.722 74.9783 59.7211C74.9795 59.7211 74.9795 59.7211 74.981 59.7211C84.803 59.7211 110.961 64.398 119.069 65.8925V97.0646Z" fill="black"/>
<path d="M83.107 89.9459C83.107 85.6102 79.5923 82.0955 75.2566 82.0955C70.921 82.0955 67.4062 85.6102 67.4062 89.9459C67.4062 92.6661 68.7902 95.0628 70.8923 96.4714L68.6139 109.572H81.8991L79.7918 96.3516C81.7972 94.9298 83.107 92.5917 83.107 89.9459Z" fill="#BDCCD4"/>
<path d="M81.8994 112.56H68.6142C67.732 112.56 66.895 112.17 66.3275 111.495C65.7598 110.82 65.5192 109.929 65.6704 109.06L67.6515 97.6685C65.5998 95.6499 64.4183 92.8813 64.4183 89.9461C64.4183 83.9698 69.2804 79.1074 75.2566 79.1074C81.2329 79.1074 86.095 83.9695 86.095 89.9461C86.095 92.7952 84.965 95.5128 83.0039 97.5214L84.8502 109.102C84.9876 109.966 84.7403 110.846 84.1726 111.512C83.6048 112.176 82.7739 112.56 81.8994 112.56ZM72.1667 106.584H78.3973L76.841 96.8224C76.662 95.6997 77.1357 94.5727 78.063 93.9149C79.3506 93.0018 80.119 91.5182 80.119 89.9461C80.119 87.2648 77.9379 85.0837 75.2569 85.0837C72.576 85.0837 70.3948 87.2648 70.3948 89.9461C70.3948 91.5709 71.2028 93.0823 72.5561 93.9896C73.5369 94.6471 74.0388 95.8204 73.8363 96.9841L72.1667 106.584Z" fill="black"/>
<path d="M38.2471 78.5857C36.5968 78.5857 35.2591 77.248 35.2591 75.5977V71.7132C35.2591 70.0629 36.5968 68.7252 38.2471 68.7252C39.8974 68.7252 41.2351 70.0629 41.2351 71.7132V75.5977C41.2351 77.248 39.8974 78.5857 38.2471 78.5857Z" fill="black"/>
<path d="M38.2471 99.8382C36.5968 99.8382 35.2591 98.5005 35.2591 96.8502V86.6534C35.2591 85.0031 36.5968 83.6654 38.2471 83.6654C39.8974 83.6654 41.2351 85.0031 41.2351 86.6534V96.8502C41.2351 98.5005 39.8974 99.8382 38.2471 99.8382Z" fill="black"/>
<path d="M157.102 53.176C156.647 53.176 156.295 53.0513 156.046 52.802C155.811 52.538 155.694 52.1787 155.694 51.724V38.766C155.694 38.2967 155.811 37.9373 156.046 37.688C156.295 37.4387 156.647 37.314 157.102 37.314C157.557 37.314 157.901 37.4387 158.136 37.688C158.385 37.9373 158.51 38.2967 158.51 38.766V51.724C158.51 52.1787 158.393 52.538 158.158 52.802C157.923 53.0513 157.571 53.176 157.102 53.176ZM171.77 53.176C171.403 53.176 171.088 53.088 170.824 52.912C170.56 52.7213 170.347 52.428 170.186 52.032L166.996 43.892C166.864 43.54 166.82 43.232 166.864 42.968C166.922 42.6893 167.062 42.4693 167.282 42.308C167.502 42.1467 167.795 42.066 168.162 42.066C168.484 42.066 168.748 42.1467 168.954 42.308C169.159 42.4547 169.335 42.7407 169.482 43.166L172.144 50.492H171.638L174.388 42.99C174.505 42.6673 174.659 42.4327 174.85 42.286C175.055 42.1393 175.319 42.066 175.642 42.066C175.964 42.066 176.228 42.1467 176.434 42.308C176.639 42.4547 176.793 42.682 176.896 42.99L179.602 50.492H179.14L181.824 43.1C181.97 42.704 182.154 42.4327 182.374 42.286C182.608 42.1393 182.865 42.066 183.144 42.066C183.496 42.066 183.767 42.154 183.958 42.33C184.148 42.506 184.258 42.7333 184.288 43.012C184.317 43.276 184.266 43.5693 184.134 43.892L180.966 52.032C180.819 52.4133 180.606 52.6993 180.328 52.89C180.064 53.0807 179.748 53.176 179.382 53.176C179.015 53.176 178.692 53.0807 178.414 52.89C178.15 52.6993 177.944 52.4133 177.798 52.032L174.916 44.398H176.17L173.354 52.01C173.207 52.406 173.002 52.6993 172.738 52.89C172.474 53.0807 172.151 53.176 171.77 53.176ZM189.695 53.22C188.917 53.22 188.221 53.0733 187.605 52.78C187.003 52.472 186.527 52.0613 186.175 51.548C185.837 51.0347 185.669 50.4553 185.669 49.81C185.669 49.018 185.874 48.3947 186.285 47.94C186.695 47.4707 187.363 47.1333 188.287 46.928C189.211 46.7227 190.45 46.62 192.005 46.62H193.105V48.204H192.027C191.117 48.204 190.391 48.248 189.849 48.336C189.306 48.424 188.917 48.578 188.683 48.798C188.463 49.0033 188.353 49.2967 188.353 49.678C188.353 50.162 188.521 50.558 188.859 50.866C189.196 51.174 189.665 51.328 190.267 51.328C190.751 51.328 191.176 51.218 191.543 50.998C191.924 50.7633 192.225 50.448 192.445 50.052C192.665 49.656 192.775 49.2013 192.775 48.688V46.158C192.775 45.4247 192.613 44.8967 192.291 44.574C191.968 44.2513 191.425 44.09 190.663 44.09C190.237 44.09 189.775 44.1413 189.277 44.244C188.793 44.3467 188.279 44.5227 187.737 44.772C187.458 44.904 187.209 44.9407 186.989 44.882C186.783 44.8233 186.622 44.706 186.505 44.53C186.387 44.3393 186.329 44.134 186.329 43.914C186.329 43.694 186.387 43.4813 186.505 43.276C186.622 43.056 186.82 42.8947 187.099 42.792C187.773 42.5133 188.419 42.3153 189.035 42.198C189.665 42.0807 190.237 42.022 190.751 42.022C191.807 42.022 192.672 42.1833 193.347 42.506C194.036 42.8287 194.549 43.32 194.887 43.98C195.224 44.6253 195.393 45.4613 195.393 46.488V51.768C195.393 52.2227 195.283 52.5747 195.063 52.824C194.843 53.0587 194.527 53.176 194.117 53.176C193.706 53.176 193.383 53.0587 193.149 52.824C192.929 52.5747 192.819 52.2227 192.819 51.768V50.712H192.995C192.892 51.2253 192.687 51.6727 192.379 52.054C192.085 52.4207 191.711 52.7067 191.257 52.912C190.802 53.1173 190.281 53.22 189.695 53.22ZM199.548 53.176C199.108 53.176 198.771 53.0587 198.536 52.824C198.301 52.5747 198.184 52.2227 198.184 51.768V43.452C198.184 42.9973 198.301 42.6527 198.536 42.418C198.771 42.1833 199.101 42.066 199.526 42.066C199.951 42.066 200.281 42.1833 200.516 42.418C200.751 42.6527 200.868 42.9973 200.868 43.452V44.948L200.626 44.398C200.949 43.6207 201.447 43.034 202.122 42.638C202.811 42.2273 203.589 42.022 204.454 42.022C205.319 42.022 206.031 42.1833 206.588 42.506C207.145 42.8287 207.563 43.32 207.842 43.98C208.121 44.6253 208.26 45.4467 208.26 46.444V51.768C208.26 52.2227 208.143 52.5747 207.908 52.824C207.673 53.0587 207.336 53.176 206.896 53.176C206.456 53.176 206.111 53.0587 205.862 52.824C205.627 52.5747 205.51 52.2227 205.51 51.768V46.576C205.51 45.74 205.349 45.1313 205.026 44.75C204.718 44.3687 204.234 44.178 203.574 44.178C202.767 44.178 202.122 44.4347 201.638 44.948C201.169 45.4467 200.934 46.114 200.934 46.95V51.768C200.934 52.7067 200.472 53.176 199.548 53.176ZM215.981 53.22C215.028 53.22 214.228 53.0587 213.583 52.736C212.952 52.4133 212.483 51.944 212.175 51.328C211.867 50.6973 211.713 49.92 211.713 48.996V44.31H210.569C210.217 44.31 209.946 44.222 209.755 44.046C209.564 43.8553 209.469 43.5987 209.469 43.276C209.469 42.9387 209.564 42.682 209.755 42.506C209.946 42.33 210.217 42.242 210.569 42.242H211.713V40.24C211.713 39.7853 211.83 39.4407 212.065 39.206C212.314 38.9713 212.659 38.854 213.099 38.854C213.539 38.854 213.876 38.9713 214.111 39.206C214.346 39.4407 214.463 39.7853 214.463 40.24V42.242H216.795C217.147 42.242 217.418 42.33 217.609 42.506C217.8 42.682 217.895 42.9387 217.895 43.276C217.895 43.5987 217.8 43.8553 217.609 44.046C217.418 44.222 217.147 44.31 216.795 44.31H214.463V48.842C214.463 49.546 214.617 50.074 214.925 50.426C215.233 50.778 215.732 50.954 216.421 50.954C216.67 50.954 216.89 50.932 217.081 50.888C217.272 50.844 217.44 50.8147 217.587 50.8C217.763 50.7853 217.91 50.844 218.027 50.976C218.144 51.0933 218.203 51.3427 218.203 51.724C218.203 52.0173 218.152 52.2813 218.049 52.516C217.961 52.736 217.792 52.89 217.543 52.978C217.352 53.0367 217.103 53.088 216.795 53.132C216.487 53.1907 216.216 53.22 215.981 53.22ZM230.397 53.22C229.444 53.22 228.644 53.0587 227.999 52.736C227.368 52.4133 226.899 51.944 226.591 51.328C226.283 50.6973 226.129 49.92 226.129 48.996V44.31H224.985C224.633 44.31 224.362 44.222 224.171 44.046C223.98 43.8553 223.885 43.5987 223.885 43.276C223.885 42.9387 223.98 42.682 224.171 42.506C224.362 42.33 224.633 42.242 224.985 42.242H226.129V40.24C226.129 39.7853 226.246 39.4407 226.481 39.206C226.73 38.9713 227.075 38.854 227.515 38.854C227.955 38.854 228.292 38.9713 228.527 39.206C228.762 39.4407 228.879 39.7853 228.879 40.24V42.242H231.211C231.563 42.242 231.834 42.33 232.025 42.506C232.216 42.682 232.311 42.9387 232.311 43.276C232.311 43.5987 232.216 43.8553 232.025 44.046C231.834 44.222 231.563 44.31 231.211 44.31H228.879V48.842C228.879 49.546 229.033 50.074 229.341 50.426C229.649 50.778 230.148 50.954 230.837 50.954C231.086 50.954 231.306 50.932 231.497 50.888C231.688 50.844 231.856 50.8147 232.003 50.8C232.179 50.7853 232.326 50.844 232.443 50.976C232.56 51.0933 232.619 51.3427 232.619 51.724C232.619 52.0173 232.568 52.2813 232.465 52.516C232.377 52.736 232.208 52.89 231.959 52.978C231.768 53.0367 231.519 53.088 231.211 53.132C230.903 53.1907 230.632 53.22 230.397 53.22ZM238.711 53.22C237.596 53.22 236.628 52.9927 235.807 52.538C234.986 52.0833 234.348 51.438 233.893 50.602C233.438 49.7513 233.211 48.754 233.211 47.61C233.211 46.7447 233.336 45.9747 233.585 45.3C233.849 44.6107 234.223 44.024 234.707 43.54C235.191 43.0413 235.77 42.6673 236.445 42.418C237.12 42.154 237.875 42.022 238.711 42.022C239.826 42.022 240.794 42.2493 241.615 42.704C242.436 43.1587 243.074 43.804 243.529 44.64C243.984 45.476 244.211 46.466 244.211 47.61C244.211 48.4753 244.079 49.2527 243.815 49.942C243.566 50.6313 243.199 51.2253 242.715 51.724C242.231 52.208 241.652 52.582 240.977 52.846C240.302 53.0953 239.547 53.22 238.711 53.22ZM238.711 51.13C239.254 51.13 239.73 50.998 240.141 50.734C240.552 50.47 240.867 50.0813 241.087 49.568C241.322 49.04 241.439 48.3873 241.439 47.61C241.439 46.4367 241.19 45.564 240.691 44.992C240.192 44.4053 239.532 44.112 238.711 44.112C238.168 44.112 237.692 44.244 237.281 44.508C236.87 44.7573 236.548 45.146 236.313 45.674C236.093 46.1873 235.983 46.8327 235.983 47.61C235.983 48.7687 236.232 49.6487 236.731 50.25C237.23 50.8367 237.89 51.13 238.711 51.13ZM253.817 53.176C253.377 53.176 253.04 53.0587 252.805 52.824C252.571 52.5747 252.453 52.2227 252.453 51.768V38.7C252.453 38.2453 252.571 37.9007 252.805 37.666C253.04 37.4313 253.377 37.314 253.817 37.314C254.257 37.314 254.595 37.4313 254.829 37.666C255.079 37.9007 255.203 38.2453 255.203 38.7V46.818H255.247L258.877 42.99C259.171 42.6967 259.427 42.4693 259.647 42.308C259.867 42.1467 260.168 42.066 260.549 42.066C260.931 42.066 261.217 42.1687 261.407 42.374C261.613 42.5647 261.715 42.7993 261.715 43.078C261.715 43.3567 261.583 43.6353 261.319 43.914L257.491 47.962V46.818L261.693 51.35C261.957 51.6287 262.075 51.9147 262.045 52.208C262.031 52.4867 261.913 52.7213 261.693 52.912C261.473 53.088 261.195 53.176 260.857 53.176C260.447 53.176 260.117 53.0953 259.867 52.934C259.633 52.7727 259.369 52.5307 259.075 52.208L255.247 48.204H255.203V51.768C255.203 52.7067 254.741 53.176 253.817 53.176ZM269.336 53.22C268.118 53.22 267.07 52.9927 266.19 52.538C265.31 52.0833 264.628 51.438 264.144 50.602C263.674 49.766 263.44 48.776 263.44 47.632C263.44 46.5173 263.667 45.542 264.122 44.706C264.591 43.87 265.229 43.2173 266.036 42.748C266.857 42.264 267.788 42.022 268.83 42.022C269.592 42.022 270.274 42.1467 270.876 42.396C271.492 42.6453 272.012 43.0047 272.438 43.474C272.878 43.9433 273.208 44.5153 273.428 45.19C273.662 45.85 273.78 46.598 273.78 47.434C273.78 47.698 273.684 47.9033 273.494 48.05C273.318 48.182 273.061 48.248 272.724 48.248H265.662V46.664H271.844L271.492 46.994C271.492 46.3193 271.389 45.7547 271.184 45.3C270.993 44.8453 270.707 44.5007 270.326 44.266C269.959 44.0167 269.497 43.892 268.94 43.892C268.324 43.892 267.796 44.0387 267.356 44.332C266.93 44.6107 266.6 45.014 266.366 45.542C266.146 46.0553 266.036 46.6713 266.036 47.39V47.544C266.036 48.7467 266.314 49.6487 266.872 50.25C267.444 50.8367 268.28 51.13 269.38 51.13C269.761 51.13 270.186 51.086 270.656 50.998C271.14 50.8953 271.594 50.7267 272.02 50.492C272.328 50.316 272.599 50.2427 272.834 50.272C273.068 50.2867 273.252 50.3673 273.384 50.514C273.53 50.6607 273.618 50.844 273.648 51.064C273.677 51.2693 273.633 51.482 273.516 51.702C273.413 51.922 273.23 52.1127 272.966 52.274C272.452 52.5967 271.858 52.8387 271.184 53C270.524 53.1467 269.908 53.22 269.336 53.22ZM281.259 53.22C280.042 53.22 278.993 52.9927 278.113 52.538C277.233 52.0833 276.551 51.438 276.067 50.602C275.598 49.766 275.363 48.776 275.363 47.632C275.363 46.5173 275.591 45.542 276.045 44.706C276.515 43.87 277.153 43.2173 277.959 42.748C278.781 42.264 279.712 42.022 280.753 42.022C281.516 42.022 282.198 42.1467 282.799 42.396C283.415 42.6453 283.936 43.0047 284.361 43.474C284.801 43.9433 285.131 44.5153 285.351 45.19C285.586 45.85 285.703 46.598 285.703 47.434C285.703 47.698 285.608 47.9033 285.417 48.05C285.241 48.182 284.985 48.248 284.647 48.248H277.585V46.664H283.767L283.415 46.994C283.415 46.3193 283.313 45.7547 283.107 45.3C282.917 44.8453 282.631 44.5007 282.249 44.266C281.883 44.0167 281.421 43.892 280.863 43.892C280.247 43.892 279.719 44.0387 279.279 44.332C278.854 44.6107 278.524 45.014 278.289 45.542C278.069 46.0553 277.959 46.6713 277.959 47.39V47.544C277.959 48.7467 278.238 49.6487 278.795 50.25C279.367 50.8367 280.203 51.13 281.303 51.13C281.685 51.13 282.11 51.086 282.579 50.998C283.063 50.8953 283.518 50.7267 283.943 50.492C284.251 50.316 284.523 50.2427 284.757 50.272C284.992 50.2867 285.175 50.3673 285.307 50.514C285.454 50.6607 285.542 50.844 285.571 51.064C285.601 51.2693 285.557 51.482 285.439 51.702C285.337 51.922 285.153 52.1127 284.889 52.274C284.376 52.5967 283.782 52.8387 283.107 53C282.447 53.1467 281.831 53.22 281.259 53.22ZM289.245 57.136C288.805 57.136 288.468 57.0187 288.233 56.784C287.999 56.5493 287.881 56.2047 287.881 55.75V43.452C287.881 42.9973 287.999 42.6527 288.233 42.418C288.468 42.1833 288.798 42.066 289.223 42.066C289.663 42.066 290.001 42.1833 290.235 42.418C290.47 42.6527 290.587 42.9973 290.587 43.452V45.168L290.345 44.508C290.565 43.76 291.013 43.1587 291.687 42.704C292.377 42.2493 293.176 42.022 294.085 42.022C295.024 42.022 295.845 42.2493 296.549 42.704C297.268 43.1587 297.825 43.804 298.221 44.64C298.617 45.4613 298.815 46.4513 298.815 47.61C298.815 48.754 298.617 49.7513 298.221 50.602C297.825 51.438 297.275 52.0833 296.571 52.538C295.867 52.9927 295.039 53.22 294.085 53.22C293.191 53.22 292.406 53 291.731 52.56C291.057 52.1053 290.602 51.5187 290.367 50.8H290.631V55.75C290.631 56.2047 290.507 56.5493 290.257 56.784C290.023 57.0187 289.685 57.136 289.245 57.136ZM293.315 51.13C293.858 51.13 294.335 50.998 294.745 50.734C295.156 50.47 295.471 50.0813 295.691 49.568C295.926 49.04 296.043 48.3873 296.043 47.61C296.043 46.4367 295.794 45.564 295.295 44.992C294.797 44.4053 294.137 44.112 293.315 44.112C292.773 44.112 292.296 44.244 291.885 44.508C291.475 44.7573 291.152 45.146 290.917 45.674C290.697 46.1873 290.587 46.8327 290.587 47.61C290.587 48.7687 290.837 49.6487 291.335 50.25C291.834 50.8367 292.494 51.13 293.315 51.13ZM158.158 87.136C157.835 87.136 157.571 87.048 157.366 86.872C157.161 86.7107 157.036 86.4907 156.992 86.212C156.963 85.9333 157.014 85.64 157.146 85.332L158.642 82.01V83.154L154.638 73.892C154.506 73.5693 154.462 73.2687 154.506 72.99C154.55 72.7113 154.682 72.4913 154.902 72.33C155.137 72.154 155.452 72.066 155.848 72.066C156.185 72.066 156.457 72.1467 156.662 72.308C156.867 72.4547 157.051 72.7407 157.212 73.166L160.182 80.58H159.522L162.558 73.144C162.719 72.7333 162.91 72.4547 163.13 72.308C163.35 72.1467 163.643 72.066 164.01 72.066C164.333 72.066 164.589 72.154 164.78 72.33C164.971 72.4913 165.088 72.7113 165.132 72.99C165.176 73.254 165.125 73.5473 164.978 73.87L159.632 86.08C159.441 86.4907 159.236 86.7693 159.016 86.916C158.796 87.0627 158.51 87.136 158.158 87.136ZM171.701 83.22C170.587 83.22 169.619 82.9927 168.797 82.538C167.976 82.0833 167.338 81.438 166.883 80.602C166.429 79.7513 166.201 78.754 166.201 77.61C166.201 76.7447 166.326 75.9747 166.575 75.3C166.839 74.6107 167.213 74.024 167.697 73.54C168.181 73.0413 168.761 72.6673 169.435 72.418C170.11 72.154 170.865 72.022 171.701 72.022C172.816 72.022 173.784 72.2493 174.605 72.704C175.427 73.1587 176.065 73.804 176.519 74.64C176.974 75.476 177.201 76.466 177.201 77.61C177.201 78.4753 177.069 79.2527 176.805 79.942C176.556 80.6313 176.189 81.2253 175.705 81.724C175.221 82.208 174.642 82.582 173.967 82.846C173.293 83.0953 172.537 83.22 171.701 83.22ZM171.701 81.13C172.244 81.13 172.721 80.998 173.131 80.734C173.542 80.47 173.857 80.0813 174.077 79.568C174.312 79.04 174.429 78.3873 174.429 77.61C174.429 76.4367 174.18 75.564 173.681 74.992C173.183 74.4053 172.523 74.112 171.701 74.112C171.159 74.112 170.682 74.244 170.271 74.508C169.861 74.7573 169.538 75.146 169.303 75.674C169.083 76.1873 168.973 76.8327 168.973 77.61C168.973 78.7687 169.223 79.6487 169.721 80.25C170.22 80.8367 170.88 81.13 171.701 81.13ZM183.365 83.22C182.47 83.22 181.73 83.0587 181.143 82.736C180.556 82.3987 180.116 81.9 179.823 81.24C179.544 80.58 179.405 79.7587 179.405 78.776V73.452C179.405 72.9827 179.522 72.638 179.757 72.418C179.992 72.1833 180.329 72.066 180.769 72.066C181.209 72.066 181.546 72.1833 181.781 72.418C182.03 72.638 182.155 72.9827 182.155 73.452V78.82C182.155 79.5827 182.309 80.1473 182.617 80.514C182.925 80.8807 183.416 81.064 184.091 81.064C184.824 81.064 185.426 80.8147 185.895 80.316C186.364 79.8027 186.599 79.128 186.599 78.292V73.452C186.599 72.9827 186.716 72.638 186.951 72.418C187.186 72.1833 187.523 72.066 187.963 72.066C188.403 72.066 188.74 72.1833 188.975 72.418C189.224 72.638 189.349 72.9827 189.349 73.452V81.768C189.349 82.7067 188.902 83.176 188.007 83.176C187.582 83.176 187.252 83.0587 187.017 82.824C186.782 82.5747 186.665 82.2227 186.665 81.768V80.096L186.973 80.756C186.665 81.548 186.196 82.1567 185.565 82.582C184.949 83.0073 184.216 83.22 183.365 83.22ZM193.619 83.176C193.165 83.176 192.813 83.0587 192.563 82.824C192.329 82.5747 192.211 82.2227 192.211 81.768V73.452C192.211 72.9973 192.329 72.6527 192.563 72.418C192.798 72.1833 193.128 72.066 193.553 72.066C193.979 72.066 194.309 72.1833 194.543 72.418C194.778 72.6527 194.895 72.9973 194.895 73.452V74.838H194.675C194.881 73.958 195.284 73.2907 195.885 72.836C196.487 72.3813 197.286 72.11 198.283 72.022C198.591 71.9927 198.833 72.0733 199.009 72.264C199.2 72.44 199.31 72.7187 199.339 73.1C199.369 73.4667 199.281 73.7673 199.075 74.002C198.885 74.222 198.591 74.354 198.195 74.398L197.711 74.442C196.817 74.53 196.142 74.8087 195.687 75.278C195.233 75.7327 195.005 76.378 195.005 77.214V81.768C195.005 82.2227 194.888 82.5747 194.653 82.824C194.419 83.0587 194.074 83.176 193.619 83.176ZM210.737 83.22C210.106 83.22 209.439 83.154 208.735 83.022C208.031 82.89 207.4 82.6627 206.843 82.34C206.608 82.1933 206.44 82.0247 206.337 81.834C206.249 81.6287 206.212 81.4307 206.227 81.24C206.256 81.0347 206.33 80.8587 206.447 80.712C206.579 80.5653 206.74 80.47 206.931 80.426C207.136 80.382 207.356 80.4187 207.591 80.536C208.178 80.8147 208.728 81.0127 209.241 81.13C209.754 81.2327 210.26 81.284 210.759 81.284C211.463 81.284 211.984 81.1667 212.321 80.932C212.673 80.6827 212.849 80.36 212.849 79.964C212.849 79.6267 212.732 79.37 212.497 79.194C212.277 79.0033 211.94 78.864 211.485 78.776L209.285 78.358C208.376 78.182 207.679 77.852 207.195 77.368C206.726 76.8693 206.491 76.2313 206.491 75.454C206.491 74.75 206.682 74.1413 207.063 73.628C207.459 73.1147 208.002 72.7187 208.691 72.44C209.38 72.1613 210.172 72.022 211.067 72.022C211.712 72.022 212.314 72.0953 212.871 72.242C213.443 72.374 213.993 72.5867 214.521 72.88C214.741 72.9973 214.888 73.1513 214.961 73.342C215.049 73.5327 215.071 73.7307 215.027 73.936C214.983 74.1267 214.895 74.3027 214.763 74.464C214.631 74.6107 214.462 74.706 214.257 74.75C214.066 74.7793 213.846 74.7353 213.597 74.618C213.142 74.3833 212.702 74.2147 212.277 74.112C211.866 74.0093 211.47 73.958 211.089 73.958C210.37 73.958 209.835 74.0827 209.483 74.332C209.146 74.5813 208.977 74.9113 208.977 75.322C208.977 75.63 209.08 75.8867 209.285 76.092C209.49 76.2973 209.806 76.4367 210.231 76.51L212.431 76.928C213.384 77.104 214.103 77.4267 214.587 77.896C215.086 78.3653 215.335 78.996 215.335 79.788C215.335 80.8587 214.917 81.702 214.081 82.318C213.245 82.9193 212.13 83.22 210.737 83.22ZM222.843 83.22C221.626 83.22 220.577 82.9927 219.697 82.538C218.817 82.0833 218.135 81.438 217.651 80.602C217.182 79.766 216.947 78.776 216.947 77.632C216.947 76.5173 217.175 75.542 217.629 74.706C218.099 73.87 218.737 73.2173 219.543 72.748C220.365 72.264 221.296 72.022 222.337 72.022C223.1 72.022 223.782 72.1467 224.383 72.396C224.999 72.6453 225.52 73.0047 225.945 73.474C226.385 73.9433 226.715 74.5153 226.935 75.19C227.17 75.85 227.287 76.598 227.287 77.434C227.287 77.698 227.192 77.9033 227.001 78.05C226.825 78.182 226.569 78.248 226.231 78.248H219.169V76.664H225.351L224.999 76.994C224.999 76.3193 224.897 75.7547 224.691 75.3C224.501 74.8453 224.215 74.5007 223.833 74.266C223.467 74.0167 223.005 73.892 222.447 73.892C221.831 73.892 221.303 74.0387 220.863 74.332C220.438 74.6107 220.108 75.014 219.873 75.542C219.653 76.0553 219.543 76.6713 219.543 77.39V77.544C219.543 78.7467 219.822 79.6487 220.379 80.25C220.951 80.8367 221.787 81.13 222.887 81.13C223.269 81.13 223.694 81.086 224.163 80.998C224.647 80.8953 225.102 80.7267 225.527 80.492C225.835 80.316 226.107 80.2427 226.341 80.272C226.576 80.2867 226.759 80.3673 226.891 80.514C227.038 80.6607 227.126 80.844 227.155 81.064C227.185 81.2693 227.141 81.482 227.023 81.702C226.921 81.922 226.737 82.1127 226.473 82.274C225.96 82.5967 225.366 82.8387 224.691 83C224.031 83.1467 223.415 83.22 222.843 83.22ZM234.437 83.22C233.308 83.22 232.325 82.9927 231.489 82.538C230.653 82.0687 230.008 81.4087 229.553 80.558C229.098 79.7073 228.871 78.71 228.871 77.566C228.871 76.7007 228.996 75.9307 229.245 75.256C229.509 74.5667 229.883 73.9873 230.367 73.518C230.851 73.034 231.438 72.6673 232.127 72.418C232.816 72.154 233.586 72.022 234.437 72.022C234.921 72.022 235.442 72.088 235.999 72.22C236.571 72.352 237.106 72.572 237.605 72.88C237.84 73.0267 237.994 73.2027 238.067 73.408C238.14 73.6133 238.155 73.826 238.111 74.046C238.067 74.2513 237.972 74.4347 237.825 74.596C237.693 74.7427 237.524 74.838 237.319 74.882C237.114 74.9113 236.886 74.86 236.637 74.728C236.314 74.5373 235.984 74.398 235.647 74.31C235.31 74.2073 234.987 74.156 234.679 74.156C234.195 74.156 233.77 74.2367 233.403 74.398C233.036 74.5447 232.721 74.7647 232.457 75.058C232.208 75.3367 232.017 75.6887 231.885 76.114C231.753 76.5393 231.687 77.0307 231.687 77.588C231.687 78.6733 231.944 79.5313 232.457 80.162C232.985 80.778 233.726 81.086 234.679 81.086C234.987 81.086 235.302 81.042 235.625 80.954C235.962 80.866 236.3 80.7267 236.637 80.536C236.886 80.404 237.106 80.36 237.297 80.404C237.502 80.448 237.671 80.5507 237.803 80.712C237.935 80.8587 238.016 81.042 238.045 81.262C238.074 81.4673 238.045 81.6727 237.957 81.878C237.884 82.0833 237.737 82.252 237.517 82.384C237.033 82.6773 236.52 82.89 235.977 83.022C235.434 83.154 234.921 83.22 234.437 83.22ZM241.25 83.176C240.795 83.176 240.443 83.0587 240.194 82.824C239.959 82.5747 239.842 82.2227 239.842 81.768V73.452C239.842 72.9973 239.959 72.6527 240.194 72.418C240.429 72.1833 240.759 72.066 241.184 72.066C241.609 72.066 241.939 72.1833 242.174 72.418C242.409 72.6527 242.526 72.9973 242.526 73.452V74.838H242.306C242.511 73.958 242.915 73.2907 243.516 72.836C244.117 72.3813 244.917 72.11 245.914 72.022C246.222 71.9927 246.464 72.0733 246.64 72.264C246.831 72.44 246.941 72.7187 246.97 73.1C246.999 73.4667 246.911 73.7673 246.706 74.002C246.515 74.222 246.222 74.354 245.826 74.398L245.342 74.442C244.447 74.53 243.773 74.8087 243.318 75.278C242.863 75.7327 242.636 76.378 242.636 77.214V81.768C242.636 82.2227 242.519 82.5747 242.284 82.824C242.049 83.0587 241.705 83.176 241.25 83.176ZM253.587 83.22C252.37 83.22 251.321 82.9927 250.441 82.538C249.561 82.0833 248.879 81.438 248.395 80.602C247.926 79.766 247.691 78.776 247.691 77.632C247.691 76.5173 247.919 75.542 248.373 74.706C248.843 73.87 249.481 73.2173 250.287 72.748C251.109 72.264 252.04 72.022 253.081 72.022C253.844 72.022 254.526 72.1467 255.127 72.396C255.743 72.6453 256.264 73.0047 256.689 73.474C257.129 73.9433 257.459 74.5153 257.679 75.19C257.914 75.85 258.031 76.598 258.031 77.434C258.031 77.698 257.936 77.9033 257.745 78.05C257.569 78.182 257.313 78.248 256.975 78.248H249.913V76.664H256.095L255.743 76.994C255.743 76.3193 255.641 75.7547 255.435 75.3C255.245 74.8453 254.959 74.5007 254.577 74.266C254.211 74.0167 253.749 73.892 253.191 73.892C252.575 73.892 252.047 74.0387 251.607 74.332C251.182 74.6107 250.852 75.014 250.617 75.542C250.397 76.0553 250.287 76.6713 250.287 77.39V77.544C250.287 78.7467 250.566 79.6487 251.123 80.25C251.695 80.8367 252.531 81.13 253.631 81.13C254.013 81.13 254.438 81.086 254.907 80.998C255.391 80.8953 255.846 80.7267 256.271 80.492C256.579 80.316 256.851 80.2427 257.085 80.272C257.32 80.2867 257.503 80.3673 257.635 80.514C257.782 80.6607 257.87 80.844 257.899 81.064C257.929 81.2693 257.885 81.482 257.767 81.702C257.665 81.922 257.481 82.1127 257.217 82.274C256.704 82.5967 256.11 82.8387 255.435 83C254.775 83.1467 254.159 83.22 253.587 83.22ZM265.094 83.22C264.141 83.22 263.342 83.0587 262.696 82.736C262.066 82.4133 261.596 81.944 261.288 81.328C260.98 80.6973 260.826 79.92 260.826 78.996V74.31H259.682C259.33 74.31 259.059 74.222 258.868 74.046C258.678 73.8553 258.582 73.5987 258.582 73.276C258.582 72.9387 258.678 72.682 258.868 72.506C259.059 72.33 259.33 72.242 259.682 72.242H260.826V70.24C260.826 69.7853 260.944 69.4407 261.178 69.206C261.428 68.9713 261.772 68.854 262.212 68.854C262.652 68.854 262.99 68.9713 263.224 69.206C263.459 69.4407 263.576 69.7853 263.576 70.24V72.242H265.908C266.26 72.242 266.532 72.33 266.722 72.506C266.913 72.682 267.008 72.9387 267.008 73.276C267.008 73.5987 266.913 73.8553 266.722 74.046C266.532 74.222 266.26 74.31 265.908 74.31H263.576V78.842C263.576 79.546 263.73 80.074 264.038 80.426C264.346 80.778 264.845 80.954 265.534 80.954C265.784 80.954 266.004 80.932 266.194 80.888C266.385 80.844 266.554 80.8147 266.7 80.8C266.876 80.7853 267.023 80.844 267.14 80.976C267.258 81.0933 267.316 81.3427 267.316 81.724C267.316 82.0173 267.265 82.2813 267.162 82.516C267.074 82.736 266.906 82.89 266.656 82.978C266.466 83.0367 266.216 83.088 265.908 83.132C265.6 83.1907 265.329 83.22 265.094 83.22ZM272.548 83.22C271.917 83.22 271.25 83.154 270.546 83.022C269.842 82.89 269.211 82.6627 268.654 82.34C268.419 82.1933 268.25 82.0247 268.148 81.834C268.06 81.6287 268.023 81.4307 268.038 81.24C268.067 81.0347 268.14 80.8587 268.258 80.712C268.39 80.5653 268.551 80.47 268.742 80.426C268.947 80.382 269.167 80.4187 269.402 80.536C269.988 80.8147 270.538 81.0127 271.052 81.13C271.565 81.2327 272.071 81.284 272.57 81.284C273.274 81.284 273.794 81.1667 274.132 80.932C274.484 80.6827 274.66 80.36 274.66 79.964C274.66 79.6267 274.542 79.37 274.308 79.194C274.088 79.0033 273.75 78.864 273.296 78.776L271.096 78.358C270.186 78.182 269.49 77.852 269.006 77.368C268.536 76.8693 268.302 76.2313 268.302 75.454C268.302 74.75 268.492 74.1413 268.874 73.628C269.27 73.1147 269.812 72.7187 270.502 72.44C271.191 72.1613 271.983 72.022 272.878 72.022C273.523 72.022 274.124 72.0953 274.682 72.242C275.254 72.374 275.804 72.5867 276.332 72.88C276.552 72.9973 276.698 73.1513 276.772 73.342C276.86 73.5327 276.882 73.7307 276.838 73.936C276.794 74.1267 276.706 74.3027 276.574 74.464C276.442 74.6107 276.273 74.706 276.068 74.75C275.877 74.7793 275.657 74.7353 275.408 74.618C274.953 74.3833 274.513 74.2147 274.088 74.112C273.677 74.0093 273.281 73.958 272.9 73.958C272.181 73.958 271.646 74.0827 271.294 74.332C270.956 74.5813 270.788 74.9113 270.788 75.322C270.788 75.63 270.89 75.8867 271.096 76.092C271.301 76.2973 271.616 76.4367 272.042 76.51L274.242 76.928C275.195 77.104 275.914 77.4267 276.398 77.896C276.896 78.3653 277.146 78.996 277.146 79.788C277.146 80.8587 276.728 81.702 275.892 82.318C275.056 82.9193 273.941 83.22 272.548 83.22Z" fill="#171717"/>
</svg>
