<svg width="48" height="48" viewBox="0 0 48 48" fill="none" xmlns="http://www.w3.org/2000/svg">
<path d="M28.5 15.5H7.973C7.381 15.5 6.636 15.55 6.463 15.648C5.821 15.92 5.5 16.537 5.5 17.5V29.5C5.5 30.093 5.82 30.472 6.463 30.64C6.636 30.7 7.381 30.73 7.973 30.73H28.5M34.5 15.5H40.574C40.994 15.5 41.327 15.55 41.574 15.648C42.191 15.92 42.5 16.537 42.5 17.5V29.5C42.5 30.093 42.191 30.472 41.574 30.64C41.327 30.7 40.994 30.73 40.574 30.73H34.5M27.5 11.5C30.5 11.5 31.5 12.5 31.5 12.5M31.5 12.5V35.5M31.5 12.5C31.5 12.5 32.5 11.5 35.5 11.5M31.5 35.5C31.5 35.5 30.5 36.5 27.5 36.5M31.5 35.5C31.5 35.5 32.5 36.5 35.5 36.5M5.5 28.885V32.269C5.5 32.862 5.82 33.242 6.463 33.409C6.636 33.469 7.381 33.5 7.973 33.5H40.574C40.994 33.5 41.328 33.47 41.574 33.409C42.191 33.242 42.5 32.862 42.5 32.269V28.885M13.5 23.5C13.5 24.0304 13.2893 24.5391 12.9142 24.9142C12.5391 25.2893 12.0304 25.5 11.5 25.5C10.9696 25.5 10.4609 25.2893 10.0858 24.9142C9.71071 24.5391 9.5 24.0304 9.5 23.5C9.5 22.9696 9.71071 22.4609 10.0858 22.0858C10.4609 21.7107 10.9696 21.5 11.5 21.5C12.0304 21.5 12.5391 21.7107 12.9142 22.0858C13.2893 22.4609 13.5 22.9696 13.5 23.5ZM20.5 23.5C20.5 24.0304 20.2893 24.5391 19.9142 24.9142C19.5391 25.2893 19.0304 25.5 18.5 25.5C17.9696 25.5 17.4609 25.2893 17.0858 24.9142C16.7107 24.5391 16.5 24.0304 16.5 23.5C16.5 22.9696 16.7107 22.4609 17.0858 22.0858C17.4609 21.7107 17.9696 21.5 18.5 21.5C19.0304 21.5 19.5391 21.7107 19.9142 22.0858C20.2893 22.4609 20.5 22.9696 20.5 23.5ZM27.5 23.5C27.5 24.0304 27.2893 24.5391 26.9142 24.9142C26.5391 25.2893 26.0304 25.5 25.5 25.5C24.9696 25.5 24.4609 25.2893 24.0858 24.9142C23.7107 24.5391 23.5 24.0304 23.5 23.5C23.5 22.9696 23.7107 22.4609 24.0858 22.0858C24.4609 21.7107 24.9696 21.5 25.5 21.5C26.0304 21.5 26.5391 21.7107 26.9142 22.0858C27.2893 22.4609 27.5 22.9696 27.5 23.5Z" stroke="#FF7800" stroke-width="1.5" stroke-linecap="round" stroke-linejoin="round"/>
</svg>