<svg width="32" height="32" viewBox="0 0 32 32" fill="none" xmlns="http://www.w3.org/2000/svg">
<g clip-path="url(#clip0_41_74)">
<path d="M0 14C0 15.1063 0.89375 16 2 16C3.10625 16 4 15.1063 4 14C4 10.6875 6.6875 8.00001 10 8.00001H20V10C20 10.8063 20.4875 11.5375 21.2375 11.85C21.9875 12.1625 22.8438 11.9875 23.4188 11.4188L27.4188 7.41876C28.2 6.63751 28.2 5.36876 27.4188 4.58751L23.4188 0.587515C22.8438 0.0125149 21.9875 -0.156235 21.2375 0.156265C20.4875 0.468765 20 1.19376 20 2.00001V4.00002H10C4.475 4.00002 0 8.47502 0 14ZM32 18C32 16.8938 31.1063 16 30 16C28.8937 16 28 16.8938 28 18C28 21.3125 25.3125 24 22 24H12V22C12 21.1938 11.5125 20.4625 10.7625 20.15C10.0125 19.8375 9.15625 20.0125 8.58125 20.5813L4.58125 24.5813C3.8 25.3625 3.8 26.6313 4.58125 27.4125L8.58125 31.4125C9.15625 31.9875 10.0125 32.1563 10.7625 31.8438C11.5125 31.5313 12 30.8063 12 29.9938V28H22C27.525 28 32 23.525 32 18Z" fill="#0A6AF9"/>
</g>
<rect x="0.5" y="0.5" width="31" height="31" stroke="#FFF9D5"/>
<defs>
<clipPath id="clip0_41_74">
<rect width="32" height="32" fill="white"/>
</clipPath>
</defs>
</svg>