<svg width="25" height="28" viewBox="0 0 25 28" fill="none" xmlns="http://www.w3.org/2000/svg">
<path d="M17.1875 5.25H20.3125C21.1768 5.25 21.875 6.03203 21.875 7V21C21.875 21.968 21.1768 22.75 20.3125 22.75H17.1875C16.3232 22.75 15.625 23.532 15.625 24.5C15.625 25.468 16.3232 26.25 17.1875 26.25H20.3125C22.9004 26.25 25 23.8984 25 21V7C25 4.10156 22.9004 1.75 20.3125 1.75H17.1875C16.3232 1.75 15.625 2.53203 15.625 3.5C15.625 4.46797 16.3232 5.25 17.1875 5.25ZM16.7285 15.2359C17.3389 14.5523 17.3389 13.4422 16.7285 12.7586L10.4785 5.75859C9.86816 5.075 8.87695 5.075 8.2666 5.75859C7.65625 6.44219 7.65625 7.55234 8.2666 8.23594L11.8506 12.25H1.5625C0.698242 12.25 0 13.032 0 14C0 14.968 0.698242 15.75 1.5625 15.75H11.8506L8.2666 19.7641C7.65625 20.4477 7.65625 21.5578 8.2666 22.2414C8.87695 22.925 9.86816 22.925 10.4785 22.2414L16.7285 15.2414V15.2359Z" fill="#171717"/>
</svg>