<svg width="350" height="312" viewBox="0 0 350 312" fill="none" xmlns="http://www.w3.org/2000/svg">
<path opacity="0.5" d="M236.103 41.554C236.097 37.0584 224.697 36.0336 224.697 36.0336C224.697 36.0336 215.456 36.6986 215.462 41.1942C215.468 45.6898 213.975 47.1623 224.713 48.3763C232.246 49.2279 236.109 46.0496 236.103 41.554Z" fill="#0070F6"/>
<path d="M175.819 181.762C173.336 180.32 171.802 182.392 170.589 185.343C169.376 188.294 170.259 189.606 172.742 191.048C175.225 192.49 176.903 192.666 178.116 189.716C179.33 186.765 178.301 183.204 175.819 181.762Z" fill="#FFDDBF"/>
<path d="M174.053 113.364C174.407 114.974 175.663 116 177.063 116H187.089C189.406 116 190.969 113.302 189.871 110.878C187.708 106.105 183.801 99.7566 178.397 100.007C172.026 100.303 173.073 108.9 174.053 113.364Z" fill="#FF9780"/>
<path d="M31.1406 121.647C28.7247 123.241 28.9145 126.296 29.8257 128.247C30.7369 130.197 32.2509 131.08 34.6667 129.485C37.0826 127.891 38.0622 125.363 37.151 123.413C36.2398 121.462 34.1016 119.225 31.1406 121.647Z" fill="#BBED58"/>
<path d="M312.49 201.966C310.432 203.325 310.456 205.634 311.122 207.06C311.789 208.486 312.997 209.063 315.056 207.705C317.114 206.346 318.031 204.366 317.364 202.94C316.699 201.515 315.034 199.946 312.49 201.966Z" fill="#FFDDBF"/>
<path opacity="0.5" d="M301.283 108.89C301.218 112.699 305.936 114.013 309.551 113.788C312.568 113.6 316.331 113.404 316.397 109.595C316.462 105.787 313.047 103.818 309.731 103.332C303.503 102.418 301.348 105.082 301.283 108.89Z" fill="#0070F6"/>
<path d="M242.308 150H246.693C248.232 150 249.575 151.241 249.955 153.014L257.226 187.014C257.767 189.543 256.16 192 253.965 192H242.308C240.449 192 238.942 190.209 238.942 188V154C238.942 151.791 240.449 150 242.308 150Z" fill="#071D2B" fill-opacity="0.15"/>
<path d="M120.312 193H108.757C107.19 193 105.83 194.285 105.478 196.1L92.6583 262.1C92.1711 264.607 93.7731 267 95.9378 267H120.312C122.171 267 123.678 265.209 123.678 263V197C123.678 194.791 122.171 193 120.312 193Z" fill="#071D2B" fill-opacity="0.15"/>
<path d="M186.569 246.46C186.569 246.874 186.851 247.21 187.2 247.21C187.548 247.21 187.831 246.874 187.831 246.46H186.569ZM187.2 212.5H187.831C187.831 212.301 187.764 212.11 187.645 211.97C187.528 211.829 187.367 211.75 187.2 211.75V212.5ZM161.959 212.5V211.75C161.611 211.75 161.328 212.086 161.328 212.5H161.959ZM161.328 246.46C161.328 246.874 161.611 247.21 161.959 247.21C162.307 247.21 162.59 246.874 162.59 246.46H161.328ZM173.948 246.5C173.948 246.914 174.231 247.25 174.579 247.25C174.928 247.25 175.21 246.914 175.21 246.5H173.948ZM175.21 212.5C175.21 212.086 174.928 211.75 174.579 211.75C174.231 211.75 173.948 212.086 173.948 212.5H175.21ZM187.831 246.46V212.5H186.569V246.46H187.831ZM161.328 212.5V246.46H162.59V212.5H161.328ZM187.2 211.75H161.959V213.25H187.2V211.75ZM175.21 246.5V212.5H173.948V246.5H175.21Z" fill="#071D2B"/>
<path d="M238.525 199.5H239.156C239.156 199.086 238.873 198.75 238.525 198.75V199.5ZM233.477 199.5V198.75C233.129 198.75 232.846 199.086 232.846 199.5H233.477ZM233.477 225.5H232.846C232.846 225.914 233.129 226.25 233.477 226.25V225.5ZM238.525 225.5V226.25C238.873 226.25 239.156 225.914 239.156 225.5H238.525ZM238.525 198.75H233.477V200.25H238.525V198.75ZM232.846 199.5V225.5H234.108V199.5H232.846ZM233.477 226.25H238.525V224.75H233.477V226.25ZM239.156 225.5V199.5H237.894V225.5H239.156Z" fill="#071D2B"/>
<path d="M116.53 199.5H117.161C117.161 199.086 116.878 198.75 116.53 198.75V199.5ZM111.482 199.5V198.75C111.133 198.75 110.851 199.086 110.851 199.5H111.482ZM111.482 225.5H110.851C110.851 225.914 111.133 226.25 111.482 226.25V225.5ZM116.53 225.5V226.25C116.878 226.25 117.161 225.914 117.161 225.5H116.53ZM116.53 198.75H111.482V200.25H116.53V198.75ZM110.851 199.5V225.5H112.113V199.5H110.851ZM111.482 226.25H116.53V224.75H111.482V226.25ZM117.161 225.5V199.5H115.899V225.5H117.161Z" fill="#071D2B"/>
<path d="M87.0827 141.5H86.4517C86.4517 141.086 86.7344 140.75 87.0827 140.75V141.5ZM94.6548 141.5V140.75C95.0031 140.75 95.2858 141.086 95.2858 141.5H94.6548ZM94.6548 147.5H95.2858C95.2858 147.914 95.0031 148.25 94.6548 148.25V147.5ZM87.0827 147.5V148.25C86.7344 148.25 86.4517 147.914 86.4517 147.5H87.0827ZM82.0345 181.5H81.4035C81.4035 181.086 81.686 180.75 82.0345 180.75V181.5ZM87.0827 181.5V180.75C87.431 180.75 87.7137 181.086 87.7137 181.5H87.0827ZM87.0827 187.5H87.7137C87.7137 187.914 87.431 188.25 87.0827 188.25V187.5ZM82.0345 187.5V188.25C81.686 188.25 81.4035 187.914 81.4035 187.5H82.0345ZM87.0827 140.75H94.6548V142.25H87.0827V140.75ZM95.2858 141.5V147.5H94.0238V141.5H95.2858ZM94.6548 148.25H87.0827V146.75H94.6548V148.25ZM86.4517 147.5V141.5H87.7137V147.5H86.4517ZM82.0345 180.75H87.0827V182.25H82.0345V180.75ZM87.7137 181.5V187.5H86.4517V181.5H87.7137ZM87.0827 188.25H82.0345V186.75H87.0827V188.25ZM81.4035 187.5V181.5H82.6655V187.5H81.4035Z" fill="#071D2B"/>
<path d="M262.924 141.5H263.555C263.555 141.086 263.272 140.75 262.924 140.75V141.5ZM255.352 141.5V140.75C255.004 140.75 254.721 141.086 254.721 141.5H255.352ZM255.352 147.5H254.721C254.721 147.914 255.004 148.25 255.352 148.25V147.5ZM262.924 147.5V148.25C263.272 148.25 263.555 147.914 263.555 147.5H262.924ZM267.972 181.5H268.603C268.603 181.086 268.32 180.75 267.972 180.75V181.5ZM262.924 181.5V180.75C262.576 180.75 262.293 181.086 262.293 181.5H262.924ZM262.924 187.5H262.293C262.293 187.914 262.576 188.25 262.924 188.25V187.5ZM267.972 187.5V188.25C268.32 188.25 268.603 187.914 268.603 187.5H267.972ZM262.924 140.75H255.352V142.25H262.924V140.75ZM254.721 141.5V147.5H255.983V141.5H254.721ZM255.352 148.25H262.924V146.75H255.352V148.25ZM263.555 147.5V141.5H262.293V147.5H263.555ZM267.972 180.75H262.924V182.25H267.972V180.75ZM262.293 181.5V187.5H263.555V181.5H262.293ZM262.924 188.25H267.972V186.75H262.924V188.25ZM268.603 187.5V181.5H267.341V187.5H268.603Z" fill="#071D2B"/>
<path d="M133.353 94.5H133.984C133.984 94.0858 133.702 93.75 133.353 93.75V94.5ZM132.722 112.5C132.722 112.914 133.005 113.25 133.353 113.25C133.702 113.25 133.984 112.914 133.984 112.5H132.722ZM110.847 112.383C110.847 112.797 111.13 113.133 111.478 113.133C111.827 113.133 112.109 112.797 112.109 112.383H110.847ZM118.14 94.5C118.14 94.9142 118.423 95.25 118.771 95.25C119.119 95.25 119.402 94.9142 119.402 94.5H118.14ZM118.771 90.5V89.75C118.423 89.75 118.14 90.0858 118.14 90.5H118.771ZM132.721 94.5C132.721 94.9142 133.003 95.25 133.352 95.25C133.7 95.25 133.983 94.9142 133.983 94.5H132.721ZM110.849 102.39C111.197 102.39 111.48 102.054 111.48 101.64C111.48 101.226 111.197 100.89 110.849 100.89V102.39ZM88.6964 101.64V100.89C88.3481 100.89 88.0654 101.226 88.0654 101.64H88.6964ZM88.6964 104.3H88.0654C88.0654 104.692 88.3195 105.018 88.6484 105.048L88.6964 104.3ZM110.801 107.048C111.149 107.079 111.451 106.77 111.478 106.357C111.504 105.944 111.244 105.584 110.897 105.552L110.801 107.048ZM118.209 95.25H133.353V93.75H118.209V95.25ZM132.722 94.5V112.5H133.984V94.5H132.722ZM112.109 112.383V102.5H110.847V112.383H112.109ZM118.209 93.75C114.144 93.75 110.847 97.6675 110.847 102.5H112.109C112.109 98.4959 114.84 95.25 118.209 95.25V93.75ZM119.402 94.5V90.5H118.14V94.5H119.402ZM118.771 91.25H129.986V89.75H118.771V91.25ZM129.986 91.25C131.497 91.25 132.721 92.7051 132.721 94.5H133.983C133.983 91.8766 132.193 89.75 129.986 89.75V91.25ZM110.849 100.89H88.6964V102.39H110.849V100.89ZM88.0654 101.64V104.3H89.3274V101.64H88.0654ZM88.6484 105.048L110.801 107.048L110.897 105.552L88.7443 103.552L88.6484 105.048ZM124.309 103.5C124.309 104.743 123.462 105.75 122.416 105.75V107.25C124.158 107.25 125.571 105.571 125.571 103.5H124.309ZM122.416 105.75C121.37 105.75 120.523 104.743 120.523 103.5H119.261C119.261 105.571 120.673 107.25 122.416 107.25V105.75ZM120.523 103.5C120.523 102.257 121.37 101.25 122.416 101.25V99.75C120.673 99.75 119.261 101.429 119.261 103.5H120.523ZM122.416 101.25C123.462 101.25 124.309 102.257 124.309 103.5H125.571C125.571 101.429 124.158 99.75 122.416 99.75V101.25Z" fill="#071D2B"/>
<path d="M216.581 94.5H215.95C215.95 94.0858 216.233 93.75 216.581 93.75V94.5ZM217.212 112.383C217.212 112.797 216.929 113.133 216.581 113.133C216.233 113.133 215.95 112.797 215.95 112.383H217.212ZM239.087 112.383C239.087 112.797 238.804 113.133 238.456 113.133C238.108 113.133 237.825 112.797 237.825 112.383H239.087ZM231.794 94.5C231.794 94.9142 231.512 95.25 231.163 95.25C230.815 95.25 230.532 94.9142 230.532 94.5H231.794ZM231.163 90.5V89.75C231.512 89.75 231.794 90.0858 231.794 90.5H231.163ZM217.214 94.5C217.214 94.9142 216.931 95.25 216.583 95.25C216.234 95.25 215.952 94.9142 215.952 94.5H217.214ZM239.309 102.341C238.984 102.488 238.619 102.294 238.496 101.906C238.372 101.519 238.535 101.086 238.862 100.939L239.309 102.341ZM261.238 91.64L261.014 90.9389C261.208 90.8513 261.426 90.8827 261.596 91.0227C261.767 91.1627 261.869 91.3935 261.869 91.64H261.238ZM261.238 94.3H261.869C261.869 94.5939 261.724 94.8606 261.5 94.9825L261.238 94.3ZM239.347 106.982C239.03 107.154 238.655 106.988 238.512 106.611C238.367 106.234 238.507 105.789 238.824 105.618L239.347 106.982ZM231.725 95.25H216.581V93.75H231.725V95.25ZM217.212 94.5V112.383H215.95V94.5H217.212ZM237.825 112.383V102.5H239.087V112.383H237.825ZM231.725 93.75C235.791 93.75 239.087 97.6675 239.087 102.5H237.825C237.825 98.4959 235.094 95.25 231.725 95.25V93.75ZM230.532 94.5V90.5H231.794V94.5H230.532ZM231.163 91.25H219.948V89.75H231.163V91.25ZM219.948 91.25C218.438 91.25 217.214 92.7051 217.214 94.5H215.952C215.952 91.8766 217.741 89.75 219.948 89.75V91.25ZM238.862 100.939L261.014 90.9389L261.462 92.3412L239.309 102.341L238.862 100.939ZM261.869 91.64V94.3H260.607V91.64H261.869ZM261.5 94.9825L239.347 106.982L238.824 105.618L260.976 93.6176L261.5 94.9825ZM225.625 103.5C225.625 104.743 226.473 105.75 227.519 105.75V107.25C225.776 107.25 224.363 105.571 224.363 103.5H225.625ZM227.519 105.75C228.564 105.75 229.412 104.743 229.412 103.5H230.674C230.674 105.571 229.261 107.25 227.519 107.25V105.75ZM229.412 103.5C229.412 102.257 228.564 101.25 227.519 101.25V99.75C229.261 99.75 230.674 101.429 230.674 103.5H229.412ZM227.519 101.25C226.473 101.25 225.625 102.257 225.625 103.5H224.363C224.363 101.429 225.776 99.75 227.519 99.75V101.25Z" fill="#071D2B"/>
<path d="M193.089 112.5C190.351 103.168 183.095 96.5 174.579 96.5C166.063 96.5 158.807 103.168 156.07 112.5" stroke="#071D2B" stroke-width="1.5" stroke-miterlimit="10" stroke-linecap="round" stroke-linejoin="round"/>
<path d="M173.949 96C173.949 96.4142 174.232 96.75 174.58 96.75C174.929 96.75 175.211 96.4142 175.211 96H173.949ZM175.211 74.5C175.211 74.0858 174.929 73.75 174.58 73.75C174.232 73.75 173.949 74.0858 173.949 74.5H175.211ZM174.678 74.7592C174.334 74.6946 174.011 74.9739 173.956 75.383C173.902 75.7921 174.137 76.1762 174.481 76.2408L174.678 74.7592ZM188.882 75.5H189.513C189.513 75.2763 189.429 75.0643 189.284 74.9218C189.139 74.7794 188.948 74.7213 188.764 74.7634L188.882 75.5ZM188.882 85.5L189.015 86.2331C189.305 86.1586 189.513 85.8533 189.513 85.5H188.882ZM174.774 84.1699C174.442 84.0425 174.086 84.2587 173.979 84.6529C173.872 85.047 174.053 85.4698 174.385 85.5972L174.774 84.1699ZM175.211 96V74.5H173.949V96H175.211ZM188.251 75.5V85.5H189.513V75.5H188.251ZM174.481 76.2408C179.262 77.1383 184.181 77.3364 189.001 76.2366L188.764 74.7634C184.125 75.8217 179.36 75.6381 174.678 74.7592L174.481 76.2408ZM188.749 84.7669C184.248 85.9208 178.861 85.7407 174.774 84.1699L174.385 85.5972C178.711 87.2593 184.326 87.4354 189.015 86.2331L188.749 84.7669Z" fill="#071D2B"/>
<path d="M166.561 226.97C166.315 227.263 166.315 227.737 166.561 228.03C166.808 228.323 167.207 228.323 167.453 228.03L166.561 226.97ZM169.977 225.03C170.224 224.737 170.224 224.263 169.977 223.97C169.731 223.677 169.332 223.677 169.085 223.97L169.977 225.03ZM166.561 222.97C166.315 223.263 166.315 223.737 166.561 224.03C166.808 224.323 167.207 224.323 167.453 224.03L166.561 222.97ZM169.977 221.03C170.224 220.737 170.224 220.263 169.977 219.97C169.731 219.677 169.332 219.677 169.085 219.97L169.977 221.03ZM179.181 236.97C178.935 237.263 178.935 237.737 179.181 238.03C179.428 238.323 179.827 238.323 180.073 238.03L179.181 236.97ZM182.597 235.03C182.844 234.737 182.844 234.263 182.597 233.97C182.351 233.677 181.952 233.677 181.706 233.97L182.597 235.03ZM179.181 232.97C178.935 233.263 178.935 233.737 179.181 234.03C179.428 234.323 179.827 234.323 180.073 234.03L179.181 232.97ZM182.597 231.03C182.844 230.737 182.844 230.263 182.597 229.97C182.351 229.677 181.952 229.677 181.706 229.97L182.597 231.03ZM167.453 228.03L169.977 225.03L169.085 223.97L166.561 226.97L167.453 228.03ZM167.453 224.03L169.977 221.03L169.085 219.97L166.561 222.97L167.453 224.03ZM180.073 238.03L182.597 235.03L181.706 233.97L179.181 236.97L180.073 238.03ZM180.073 234.03L182.597 231.03L181.706 229.97L179.181 232.97L180.073 234.03Z" fill="#071D2B"/>
<path d="M315.925 275.5C294.239 275.5 213.28 275.5 213.28 275.5L223.532 134.156C223.682 132.088 225.138 130.5 226.885 130.5H264.583C266.278 130.5 267.707 131.997 267.922 133.995L284.374 287.5H173.316H65.6239L82.0764 133.995C82.2904 131.997 83.7205 130.5 85.4143 130.5H123.113C124.86 130.5 126.316 132.088 126.466 134.156L134.615 246.5H85.8165L111.478 112.5H238.521L264.603 246.5H198.136V158.5C198.136 157.395 197.382 156.5 196.453 156.5H174.999H153.545C152.615 156.5 151.862 157.395 151.862 158.5V245.5C151.862 246.052 152.238 246.5 152.703 246.5H188.04C190.363 246.5 192.247 248.739 192.247 251.5C192.247 254.261 190.363 256.5 188.04 256.5H144.29C141.966 256.5 140.083 258.739 140.083 261.5C140.083 264.261 141.966 266.5 144.29 266.5H199.398C201.489 266.5 203.184 268.515 203.184 271C203.184 273.485 201.489 275.5 199.398 275.5H34.0745" stroke="#071D2B" stroke-width="1.5" stroke-miterlimit="10" stroke-linecap="round" stroke-linejoin="round"/>
<path d="M170.938 183.5C170.938 185.847 172.539 187.75 174.514 187.75V189.25C171.842 189.25 169.676 186.676 169.676 183.5H170.938ZM174.514 187.75C176.488 187.75 178.089 185.847 178.089 183.5H179.351C179.351 186.676 177.186 189.25 174.514 189.25V187.75ZM178.089 183.5C178.089 181.153 176.488 179.25 174.514 179.25V177.75C177.186 177.75 179.351 180.324 179.351 183.5H178.089ZM174.514 179.25C172.539 179.25 170.938 181.153 170.938 183.5H169.676C169.676 180.324 171.842 177.75 174.514 177.75V179.25Z" fill="#071D2B"/>
<path d="M66.0474 50.5H71.0954C76.2067 50.5 80.3502 55.4249 80.3502 61.5V66" stroke="#071D2B" stroke-width="1.5" stroke-miterlimit="10" stroke-linecap="round" stroke-linejoin="round"/>
<path d="M50.0601 44.5H82.0314" stroke="#071D2B" stroke-width="1.5" stroke-miterlimit="10" stroke-linecap="round" stroke-linejoin="round"/>
<path d="M66.0473 50.5C66.0473 51.9567 66.0473 53.2562 66.0473 54.5003C66.0473 58.9186 63.0338 62.5 59.3166 62.5H54.6876M66.0473 50.5V45.5M66.0473 50.5H60.1643C56.4435 50.5 53.4272 54.0851 53.4272 58.5077C53.4272 62.9302 56.4435 66.5153 60.1643 66.5153H91.2877C92.2174 66.5153 92.9704 65.6199 92.9704 64.5153V59C92.9704 57.6193 92.029 56.5 90.8671 56.5C89.7052 56.5 88.7637 57.6193 88.7637 59V61.5H73.1972C70.6416 61.5 68.5698 63.9624 68.5698 67" stroke="#071D2B" stroke-width="1.5" stroke-miterlimit="10" stroke-linecap="round" stroke-linejoin="round"/>
<path d="M57.6322 72.5H74.0385" stroke="#071D2B" stroke-width="1.5" stroke-miterlimit="10" stroke-linecap="round" stroke-linejoin="round"/>
<path d="M68.573 67.5V72.5" stroke="#071D2B" stroke-width="1.5" stroke-miterlimit="10" stroke-linecap="round" stroke-linejoin="round"/>
<path d="M62.6836 67.5V72.5" stroke="#071D2B" stroke-width="1.5" stroke-miterlimit="10" stroke-linecap="round" stroke-linejoin="round"/>
<path d="M104.748 57.75C104.399 57.75 104.117 58.0858 104.117 58.5C104.117 58.9142 104.399 59.25 104.748 59.25V57.75ZM123.257 59.25C123.606 59.25 123.888 58.9142 123.888 58.5C123.888 58.0858 123.606 57.75 123.257 57.75V59.25ZM102.224 63.75C101.875 63.75 101.593 64.0858 101.593 64.5C101.593 64.9142 101.875 65.25 102.224 65.25V63.75ZM108.113 65.25C108.461 65.25 108.744 64.9142 108.744 64.5C108.744 64.0858 108.461 63.75 108.113 63.75V65.25ZM100.541 51.75C100.193 51.75 99.9099 52.0858 99.9099 52.5C99.9099 52.9142 100.193 53.25 100.541 53.25V51.75ZM114.002 53.25C114.351 53.25 114.633 52.9142 114.633 52.5C114.633 52.0858 114.351 51.75 114.002 51.75V53.25ZM104.748 59.25H123.257V57.75H104.748V59.25ZM102.224 65.25H108.113V63.75H102.224V65.25ZM100.541 53.25H114.002V51.75H100.541V53.25Z" fill="#071D2B"/>
<path d="M216.134 42.9401C212.037 42.9501 211.827 39.1401 212.113 38.3101C214.696 30.9701 220.08 34.6901 221.553 32.7501C222.31 31.7401 222.545 31.6001 223.437 30.8001C226.87 27.7101 229.268 34.1001 231.901 30.6201C233.18 28.9201 237.521 28.8601 238.59 32.9801C239.541 36.7001 242.014 34.7401 243.924 36.4601C245.48 37.8601 247.39 39.6701 245.842 41.8901C244.597 43.6701 241.215 43.0001 238.775 42.9201C229.461 42.5901 225.423 42.9301 216.134 42.9401Z" stroke="#071D2B" stroke-width="1.5" stroke-miterlimit="10" stroke-linecap="round" stroke-linejoin="round"/>
<path d="M299.097 108.5C295.992 108.5 296.119 106.109 296.573 104.5C297.631 100.75 302.421 102.13 303.658 100.75C304.118 100.211 304.613 99.7161 305.139 99.2701C307.856 96.9701 309.404 101.86 311.508 99.1801C312.517 97.8901 315.773 97.8901 316.396 101.03C316.943 103.8 319.975 102.638 320.551 104.5C321.354 107.092 318.359 108.5 315.924 108.5C315.924 108.5 304.858 108.5 299.097 108.5Z" stroke="#071D2B" stroke-width="1.5" stroke-linecap="round" stroke-linejoin="round"/>
<path d="M288.161 52.5V56.4062M288.161 60.5V64.5M293.209 58.5H289.923M286.399 58.5H283.113" stroke="#071D2B" stroke-width="1.5" stroke-miterlimit="10" stroke-linecap="round" stroke-linejoin="round"/>
<path d="M31.5505 124.5C32.9445 124.5 34.0745 123.157 34.0745 121.5C34.0745 119.843 32.9445 118.5 31.5505 118.5C30.1565 118.5 29.0264 119.843 29.0264 121.5C29.0264 123.157 30.1565 124.5 31.5505 124.5Z" stroke="#071D2B" stroke-width="1.5" stroke-miterlimit="10" stroke-linecap="round" stroke-linejoin="round"/>
</svg>