<svg width="49" height="48" viewBox="0 0 49 48" fill="none" xmlns="http://www.w3.org/2000/svg">
<path d="M22.456 43.042L24.88 40.611C25.897 39.299 26.375 38.021 27.628 39.096C27.628 39.096 30.084 41.04 32.338 42.196M22.723 34.83C22.536 37.713 19.096 40.843 17.615 41.79M36.199 38.889C29.682 35.561 26.666 32.309 25.852 31.209C23.24 27.675 22.159 25.557 23.672 24.179C25.184 22.801 26.714 25.374 28.408 27.225C29.715 28.653 32.994 30.833 37.805 33.84M39.789 29.723C36.027 27.749 30.302 22.49 29.086 21.082C26.37 17.939 22.361 18.769 20.011 21.189C18.14 23.119 18.008 25.892 18.871 28.319C20.505 32.919 17.635 35.63 15.465 36.951M9.48001 29.808C9.97601 27.639 9.50001 25.09 9.33301 23.432M32.261 12.112C26.736 8.63996 16.151 7.45496 10.858 18.001M12.516 33.307C13.436 32.197 14.533 30.305 14.073 26.437C13.437 21.082 16.095 17.349 18.871 15.722C21.727 14.047 26.772 13.019 31.275 16.814C33.054 18.371 37.138 22.233 40.028 24.179M39.491 17.939C38.348 16.859 36.593 15.665 35.712 14.591M35.013 8.43996C25.852 2.72796 17.867 5.10096 12.4 8.56496" stroke="#FF7800" stroke-width="1.5" stroke-linecap="round" stroke-linejoin="round"/>
</svg>